<svg xmlns="http://www.w3.org/2000/svg" viewBox="0 0 64 64">
    <!-- Clock base -->
    <circle cx="32" cy="32" r="28" fill="#f0f0f0" stroke="#2563eb" stroke-width="3"/>
    <!-- Inner circle -->
    <circle cx="32" cy="32" r="24" fill="#ffffff" stroke="#4b83ee" stroke-width="1"/>
    <!-- Clock markers -->
    <line x1="32" y1="8" x2="32" y2="12" stroke="#333" stroke-width="2" stroke-linecap="round"/>
    <line x1="32" y1="52" x2="32" y2="56" stroke="#333" stroke-width="2" stroke-linecap="round"/>
    <line x1="8" y1="32" x2="12" y2="32" stroke="#333" stroke-width="2" stroke-linecap="round"/>
    <line x1="52" y1="32" x2="56" y2="32" stroke="#333" stroke-width="2" stroke-linecap="round"/>
    <!-- Additional markers -->
    <line x1="16" y1="16" x2="19" y2="19" stroke="#333" stroke-width="1.5" stroke-linecap="round"/>
    <line x1="16" y1="48" x2="19" y2="45" stroke="#333" stroke-width="1.5" stroke-linecap="round"/>
    <line x1="48" y1="16" x2="45" y2="19" stroke="#333" stroke-width="1.5" stroke-linecap="round"/>
    <line x1="48" y1="48" x2="45" y2="45" stroke="#333" stroke-width="1.5" stroke-linecap="round"/>
    <!-- Hour hand -->
    <line x1="32" y1="32" x2="32" y2="20" stroke="#333" stroke-width="3" stroke-linecap="round">
        <animateTransform
                attributeName="transform"
                type="rotate"
                from="0 32 32"
                to="360 32 32"
                dur="12s"
                repeatCount="indefinite"/>
    </line>
    <!-- Minute hand -->
    <line x1="32" y1="32" x2="32" y2="16" stroke="#2563eb" stroke-width="2" stroke-linecap="round">
        <animateTransform
                attributeName="transform"
                type="rotate"
                from="0 32 32"
                to="360 32 32"
                dur="1s"
                repeatCount="indefinite"/>
    </line>
    <!-- Center point -->
    <circle cx="32" cy="32" r="3" fill="#333"/>
    <!-- Hourglass element to reflect the time-tracking concept -->
    <path d="M40 23 L44 19 L44 15 L20 15 L20 19 L24 23 L24 41 L20 45 L20 49 L44 49 L44 45 L40 41 Z"
          fill="none" stroke="#2563eb" stroke-width="1.5" opacity="0.6"/>
    <!-- Sand in hourglass -->
    <path d="M24 23 L40 23 L32 32 L40 41 L24 41 L32 32 Z"
          fill="#4b83ee" fill-opacity="0.3"/>
</svg>